<svg width="500px" height="500px" viewBox="0 0 500 500" xmlns:svg="http://www.w3.org/2000/svg" xmlns="http://www.w3.org/2000/svg" xmlns:xlink="http://www.w3.org/1999/xlink" id="svg-test"  version="1.1">
    <g id="text">
        <g id="text-wrapper" transform="translate(42.00000000000006 0)">
            <g id="text" style="font-style:normal;font-weight:900;font-size:72px;line-height:1;font-family:Roboto;font-variant-ligatures:none;text-align:center;text-anchor:middle" transform="translate(0 0)">
                <path id="path705835" style="font-style:normal;font-weight:900;font-size:72px;line-height:1;font-family:Roboto;font-variant-ligatures:none;text-align:center;text-anchor:middle" d="M 375.76953,-9.4921875 H 397.25 V 0 h -33.82031 v -51.1875 h 12.33984 z" stroke-width="0" stroke-linejoin="miter" stroke-miterlimit="2" fill="#ffffff" stroke="#000000" transform="translate(0 303.02382782999996) translate(348.9032046 43.59875) scale(1.18) translate(-363.42969 51.1875)"></path>
                <path id="path705837" style="font-style:normal;font-weight:900;font-size:72px;line-height:1;font-family:Roboto;font-variant-ligatures:none;text-align:center;text-anchor:middle" d="m 400.48437,-19.371094 q 0,-5.695312 2.21485,-10.125 2.21484,-4.464843 6.36328,-6.855468 4.14844,-2.390625 9.73828,-2.390625 8.54297,0 13.46484,5.308593 4.92188,5.273438 4.92188,14.378907 v 0.421875 q 0,8.8945307 -4.95703,14.132812 -4.92188,5.203125 -13.35938,5.203125 -8.12109,0 -13.04297,-4.8515625 -4.92187,-4.8867188 -5.30859,-13.2187495 z m 11.84766,0.738282 q 0,5.273437 1.65234,7.734374 1.65235,2.460938 4.88672,2.460938 6.32813,0 6.46875,-9.738281 v -1.195313 q 0,-10.230468 -6.53906,-10.230468 -5.94141,0 -6.43359,8.824218 z" stroke-width="0" stroke-linejoin="miter" stroke-miterlimit="2" fill="#ffffff" stroke="#000000" transform="translate(0 303.02382782999996) translate(392.627727 58.28421934) scale(1.18) translate(-400.48437 38.742187)"></path>
                <path id="path705839" style="font-style:normal;font-weight:900;font-size:72px;line-height:1;font-family:Roboto;font-variant-ligatures:none;text-align:center;text-anchor:middle" d="m 441.08984,-19.300781 q 0,-5.765625 1.89844,-10.195313 1.89844,-4.429687 5.44922,-6.820312 3.55078,-2.425781 8.26172,-2.425781 5.9414,0 9.28125,4.007812 l 0.42187,-3.304687 h 10.75782 v 36.5976558 q 0,5.0273437 -2.35547,8.7187499 -2.32032,3.7265623 -6.75,5.6953123 -4.42969,2.003907 -10.26563,2.003907 -4.18359,0 -8.12109,-1.582032 -3.90235,-1.582031 -5.97656,-4.113281 l 4.95703,-6.9609375 q 3.30468,3.9023437 8.71875,3.9023437 7.875,0 7.875,-8.0859374 v -1.1953126 q -3.41016,3.7617188 -8.61328,3.7617188 -6.96094,0 -11.25,-5.3085937 -4.28907,-5.3437501 -4.28907,-14.2734373 z m 11.88282,0.738281 q 0,4.675781 1.75781,7.417969 1.75781,2.707031 4.92187,2.707031 3.83203,0 5.58985,-2.566406 V -27 q -1.72266,-2.601562 -5.51953,-2.601562 -3.16407,0 -4.95704,2.847656 -1.79296,2.8125 -1.79296,8.191406 z" stroke-width="0" stroke-linejoin="miter" stroke-miterlimit="2" fill="#ffffff" stroke="#000000" transform="translate(0 303.02382782999996) translate(440.5421816 58.28421934) scale(1.18) translate(-441.08984 38.742187)"></path>
                <path id="path705841" style="font-style:normal;font-weight:900;font-size:72px;line-height:1;font-family:Roboto;font-variant-ligatures:none;text-align:center;text-anchor:middle" d="m 496.46094,0 h -11.88282 v -38.039062 h 11.88282 z M 483.875,-47.847656 q 0,-2.53125 1.82812,-4.148438 1.82813,-1.617187 4.7461,-1.617187 2.91797,0 4.74609,1.617187 1.82813,1.617188 1.82813,4.148438 0,2.53125 -1.82813,4.148437 -1.82812,1.617188 -4.74609,1.617188 -2.91797,0 -4.7461,-1.617188 -1.82812,-1.617187 -1.82812,-4.148437 z" stroke-width="0" stroke-linejoin="miter" stroke-miterlimit="2" fill="#ffffff" stroke="#000000" transform="translate(0 303.02382782999996) translate(491.02867040000007 40.73632842) scale(1.18) translate(-483.875 53.613281)"></path>
                <path id="path705843" style="font-style:normal;font-weight:900;font-size:72px;line-height:1;font-family:Roboto;font-variant-ligatures:none;text-align:center;text-anchor:middle" d="m 514.67187,-38.039062 0.38672,4.464843 q 3.9375,-5.167968 10.86328,-5.167968 5.94141,0 8.85938,3.550781 2.95312,3.550781 3.05859,10.6875 V 0 h -11.88281 v -24.011719 q 0,-2.882812 -1.16016,-4.21875 -1.16015,-1.371093 -4.21875,-1.371093 -3.48046,0 -5.16796,2.742187 V 0 H 503.5625 v -38.039062 z" stroke-width="0" stroke-linejoin="miter" stroke-miterlimit="2" fill="#ffffff" stroke="#000000" transform="translate(0 303.02382782999996) translate(514.2599204 58.28421934) scale(1.18) translate(-503.5625 38.742187)"></path>
                <path id="path705845" style="font-style:normal;font-weight:900;font-size:72px;line-height:1;font-family:Roboto;font-variant-ligatures:none;text-align:center;text-anchor:middle" d="m 579.74609,-18.703125 q 0,9.3515625 -3.86718,14.3789063 -3.86719,5.0273437 -10.89844,5.0273437 -5.80078,0 -9.35156,-4.6054688 L 555.13672,0 h -10.61719 v -54 h 11.84766 v 19.019531 q 3.30468,-3.761718 8.54297,-3.761718 7.10156,0 10.96875,5.097656 3.86718,5.097656 3.86718,14.34375 z m -11.88281,-0.738281 q 0,-5.484375 -1.47656,-7.804688 -1.44141,-2.355468 -4.46485,-2.355468 -4.00781,0 -5.55468,3.058593 v 15.117188 q 1.51172,3.0234372 5.625,3.0234372 4.18359,0 5.30859,-4.0781252 0.5625,-2.003906 0.5625,-6.960937 z" stroke-width="0" stroke-linejoin="miter" stroke-miterlimit="2" fill="#ffffff" stroke="#000000" transform="translate(0 303.02382782999996) translate(562.5892158 40.28) scale(1.18) translate(-544.51953 54)"></path>
                <path id="path705847" style="font-style:normal;font-weight:900;font-size:72px;line-height:1;font-family:Roboto;font-variant-ligatures:none;text-align:center;text-anchor:middle" d="m 606.35937,0 q -0.63281,-1.1601562 -1.125,-3.4101563 -3.26953,4.1132813 -9.14062,4.1132813 -5.37891,0 -9.14063,-3.234375 -3.76171,-3.2695312 -3.76171,-8.191406 0,-6.1875 4.57031,-9.351563 4.57031,-3.164062 13.28906,-3.164062 h 3.65625 v -2.003906 q 0,-5.238282 -4.53516,-5.238282 -4.21875,0 -4.21875,4.148438 h -11.84765 q 0,-5.519531 4.67578,-8.964844 4.71094,-3.445312 11.98828,-3.445312 7.27734,0 11.49609,3.550781 4.21875,3.550781 4.32422,9.738281 v 16.8398437 q 0.0703,5.2382813 1.61719,8.01562505 V 0 Z m -7.41796,-7.734375 q 2.21484,0 3.65625,-0.9492188 1.47656,-0.9492187 2.10937,-2.1445312 v -6.082031 h -3.44531 q -6.1875,0 -6.1875,5.554687 0,1.6171877 1.08984,2.636719 1.08985,0.984375 2.77735,0.984375 z" stroke-width="0" stroke-linejoin="miter" stroke-miterlimit="2" fill="#ffffff" stroke="#000000" transform="translate(0 303.02382782999996) translate(608.2220342 58.28421934) scale(1.18) translate(-583.19141 38.742187)"></path>
                <path id="path705849" style="font-style:normal;font-weight:900;font-size:72px;line-height:1;font-family:Roboto;font-variant-ligatures:none;text-align:center;text-anchor:middle" d="m 635.67969,0 h -11.88282 v -38.039062 h 11.88282 z m -12.58594,-47.847656 q 0,-2.53125 1.82812,-4.148438 1.82813,-1.617187 4.7461,-1.617187 2.91797,0 4.74609,1.617187 1.82813,1.617188 1.82813,4.148438 0,2.53125 -1.82813,4.148437 -1.82812,1.617188 -4.74609,1.617188 -2.91797,0 -4.7461,-1.617188 -1.82812,-1.617187 -1.82812,-4.148437 z" stroke-width="0" stroke-linejoin="miter" stroke-miterlimit="2" fill="#ffffff" stroke="#000000" transform="translate(0 303.02382782999996) translate(655.3067953999999 40.73632842) scale(1.18) translate(-623.09375 53.613281)"></path>
                <path id="path705851" style="font-style:normal;font-weight:900;font-size:72px;line-height:1;font-family:Roboto;font-variant-ligatures:none;text-align:center;text-anchor:middle" d="m 656.80859,-47.496094 v 9.457032 h 6.25782 v 8.226562 h -6.25782 v 17.402344 q 0,2.144531 0.77344,2.988281 0.77344,0.84375 3.05859,0.84375 1.75782,0 2.95313,-0.2109375 v 8.47265625 q -3.19922,1.01953125 -6.67969,1.01953125 -6.11719,0 -9.03515,-2.8828125 -2.91797,-2.8828125 -2.91797,-8.7539065 V -29.8125 h -4.85157 v -8.226562 h 4.85157 v -9.457032 z" stroke-width="0" stroke-linejoin="miter" stroke-miterlimit="2" fill="#ffffff" stroke="#000000" transform="translate(0 303.02382782999996) translate(675.3852269999999 47.954609080000004) scale(1.18) translate(-640.10937 47.496094)"></path>
            </g>
        </g>
    </g>
</svg>